{"title":"Contagion 2011 DVDrip English Klam","uid":7114740,"size":1165427957,"categoryP":"video","categoryS":"movies","magnet":"?xt=urn:btih:91daa9c1b77889376cec1bf66f6eba282614b052&amp;dn=Contagion+2011+DVDrip+English+Klam&amp;tr=udp%3A%2F%2Ftracker.openbittorrent.com%3A80&amp;tr=udp%3A%2F%2Fopen.demonii.com%3A1337&amp;tr=udp%3A%2F%2Ftracker.coppersurfer.tk%3A6969&amp;tr=udp%3A%2F%2Fexodus.desync.com%3A6969","seeders":1,"leechers":0,"uploader":"Klambake","files":-1,"time":1332183508,"description":"With: Matt Damon, Marion Cotillard and Kate Winslet\n\nIn deze film volgen we de razendsnelle verspreiding van een dodelijk virus. Een paar dagen na de besmetting volgt de dood. Terwijl deze pandemie groeit, is de hele medische wereld in rep en roer om een geneesmiddel te vinden en om de paniek onder de mensen te bedwingen. Aan de andere kant zien we de mensen die voor hun overleving vechten en voor hun geliefden zorgen. Een totaalbeeld van een gemeenschap die totaal ineenklapt door dit luchtgedragen virus.\n\nA thriller centered on the threat posed by a deadly disease and an international team of doctors contracted by the CDC to deal with the outbreak. \n\n------------------------ Dutch Friends ------------------------\n---------------------------------------------------------------\n- Bezoek ook eens mijn vrienden op: &lt;a href=&quot; http://www.Film-Test.nl&quot; rel=&quot;nofollow&quot; target=&quot;_NEW&quot;&gt; http://www.Film-Test.nl&lt;/a&gt; --\n----- voor mijn Nederlandse Sync. ondertitels ---- en meer ----\n------- http://www.Film-Test.nl ---- voor Films en meer -------\n---------------------------------------------------------------\n\nGeneral:\n\nComplete name                    : ContagionContagion.avi\nFormat                           : AVI\nFormat/Info                      : Audio Video Interleave\nFile size                        : 1.09 GiB\nDuration                         : 1h 42mn\nOverall bit rate                 : 1 522 Kbps\n\nVideo:\n\nFormat                           : MPEG-4 Visual\nFormat profile                   : Simple@L3\nFormat settings, BVOP            : No\nFormat settings, QPel            : No\nFormat settings, GMC             : No warppoints\nFormat settings, Matrix          : Default (H.263)\nCodec ID                         : XVID\nCodec ID/Hint                    : XviD\nDuration                         : 1h 42mn\nBit rate                         : 1 127 Kbps\nWidth                            : 652 pixels\nHeight                           : 352 pixels\nDisplay aspect ratio             : 1.852\nFrame rate                       : 25.000 fps\nColor space                      : YUV\nChroma subsampling               : 4:2:0\nBit depth                        : 8 bits\nScan type                        : Progressive\nCompression mode                 : Lossy\nBits/(Pixel*Frame)               : 0.196\nStream size                      : 823 MiB (74%)\nWriting library                  : XviD 1.1.2 (UTC 2006-11-01)\n\nAudio:\n\nFormat                           : AC-3\nFormat/Info                      : Audio Coding 3\nMode extension                   : CM (complete main)\nCodec ID                         : 2000\nDuration                         : 1h 42mn\nBit rate mode                    : Constant\nBit rate                         : 384 Kbps\nChannel(s)                       : 6 channels\nChannel positions                : Front: L C R, Side: L R, LFE\nSampling rate                    : 48.0 KHz\nBit depth                        : 16 bits\nCompression mode                 : Lossy\nStream size                      : 280 MiB (25%)\nAlignment                        : Aligned on interleaves\nInterleave, duration             : 32 ms (0.80 video frame)\nInterleave, preload duration     : 832 ms\n\n","torrent":{"xt":"urn:btih:91daa9c1b77889376cec1bf66f6eba282614b052","amp;dn":"Contagion+2011+DVDrip+English+Klam","amp;tr":["udp%3A%2F%2Ftracker.openbittorrent.com%3A80","udp%3A%2F%2Fopen.demonii.com%3A1337","udp%3A%2F%2Ftracker.coppersurfer.tk%3A6969","udp%3A%2F%2Fexodus.desync.com%3A6969"],"infoHash":"91daa9c1b77889376cec1bf66f6eba282614b052","infoHashBuffer":{"type":"Buffer","data":[145,218,169,193,183,120,137,55,108,236,27,246,111,110,186,40,38,20,176,82]},"announce":[],"urlList":[]}}